<?xml version="1.0" encoding="UTF-8" standalone="no"?>
<!DOCTYPE svg PUBLIC "-//W3C//DTD SVG 1.1//EN"
 "http://www.w3.org/Graphics/SVG/1.1/DTD/svg11.dtd">
<!-- Generated by graphviz version 2.47.0 (20210316.0004)
 -->
<!-- Title: dependencies Pages: 1 -->
<svg width="2272pt" height="284pt"
 viewBox="0.00 0.00 2272.00 284.00" xmlns="http://www.w3.org/2000/svg" xmlns:xlink="http://www.w3.org/1999/xlink">
<g id="graph0" class="graph" transform="scale(1 1) rotate(0) translate(4 280)">
<title>dependencies</title>
<polygon fill="white" stroke="transparent" points="-4,4 -4,-280 2268,-280 2268,4 -4,4"/>
<text text-anchor="start" x="1111.01" y="-42.4" font-family="sans-serif" font-weight="bold" font-size="14.00">Legend</text>
<polygon fill="#ffffb3" stroke="transparent" points="898,-10 898,-30 918,-30 918,-10 898,-10"/>
<text text-anchor="start" x="921.63" y="-15.4" font-family="sans-serif" font-size="14.00"> &#160;Declarations</text>
<polygon fill="#8dd3c7" stroke="transparent" points="1011,-10 1011,-30 1031,-30 1031,-10 1011,-10"/>
<text text-anchor="start" x="1034.73" y="-15.4" font-family="sans-serif" font-size="14.00"> &#160;Module</text>
<polygon fill="#80b1d3" stroke="transparent" points="1097,-10 1097,-30 1117,-30 1117,-10 1097,-10"/>
<text text-anchor="start" x="1120.78" y="-15.4" font-family="sans-serif" font-size="14.00"> &#160;Bootstrap</text>
<polygon fill="#fdb462" stroke="transparent" points="1194,-10 1194,-30 1214,-30 1214,-10 1194,-10"/>
<text text-anchor="start" x="1217.67" y="-15.4" font-family="sans-serif" font-size="14.00"> &#160;Providers</text>
<polygon fill="#fb8072" stroke="transparent" points="1290,-10 1290,-30 1310,-30 1310,-10 1290,-10"/>
<text text-anchor="start" x="1313.73" y="-15.4" font-family="sans-serif" font-size="14.00"> &#160;Exports</text>
<g id="clust1" class="cluster">
<title>cluster_AppModule</title>
<polygon fill="none" stroke="black" stroke-dasharray="1,5" points="8,-70 8,-268 2256,-268 2256,-70 8,-70"/>
</g>
<g id="clust16" class="cluster">
<title>cluster_AppModule_imports</title>
<polygon fill="none" stroke="black" points="2104,-78 2104,-130 2248,-130 2248,-78 2104,-78"/>
</g>
<g id="clust18" class="cluster">
<title>cluster_AppModule_bootstrap</title>
<polygon fill="none" stroke="black" points="1095,-208 1095,-260 1219,-260 1219,-208 1095,-208"/>
</g>
<g id="clust19" class="cluster">
<title>cluster_AppModule_providers</title>
<polygon fill="none" stroke="black" points="1998,-78 1998,-130 2096,-130 2096,-78 1998,-78"/>
</g>
<g id="clust2" class="cluster">
<title>cluster_AppModule_declarations</title>
<polygon fill="none" stroke="black" points="16,-78 16,-130 1990,-130 1990,-78 16,-78"/>
</g>
<!-- AboutMeComponent -->
<g id="node1" class="node">
<title>AboutMeComponent</title>
<polygon fill="#ffffb3" stroke="black" points="1982.49,-122 1847.51,-122 1847.51,-86 1982.49,-86 1982.49,-122"/>
<text text-anchor="middle" x="1915" y="-99.8" font-family="Times,serif" font-size="14.00">AboutMeComponent</text>
</g>
<!-- AppModule -->
<g id="node14" class="node">
<title>AppModule</title>
<polygon fill="#8dd3c7" stroke="black" points="1198.66,-187 1195.66,-191 1174.66,-191 1171.66,-187 1115.34,-187 1115.34,-151 1198.66,-151 1198.66,-187"/>
<text text-anchor="middle" x="1157" y="-164.8" font-family="Times,serif" font-size="14.00">AppModule</text>
</g>
<!-- AboutMeComponent&#45;&gt;AppModule -->
<g id="edge1" class="edge">
<title>AboutMeComponent&#45;&gt;AppModule</title>
<path fill="none" stroke="black" d="M1915,-122.03C1915,-142.77 1915,-174 1915,-174 1915,-174 1208.83,-174 1208.83,-174"/>
<polygon fill="black" stroke="black" points="1208.83,-170.5 1198.83,-174 1208.83,-177.5 1208.83,-170.5"/>
</g>
<!-- AppComponent -->
<g id="node2" class="node">
<title>AppComponent</title>
<polygon fill="#ffffb3" stroke="black" points="1829.94,-122 1724.06,-122 1724.06,-86 1829.94,-86 1829.94,-122"/>
<text text-anchor="middle" x="1777" y="-99.8" font-family="Times,serif" font-size="14.00">AppComponent</text>
</g>
<!-- AppComponent&#45;&gt;AppModule -->
<g id="edge2" class="edge">
<title>AppComponent&#45;&gt;AppModule</title>
<path fill="none" stroke="black" d="M1777,-122.11C1777,-141.34 1777,-169 1777,-169 1777,-169 1209.13,-169 1209.13,-169"/>
<polygon fill="black" stroke="black" points="1209.13,-165.5 1199.13,-169 1209.13,-172.5 1209.13,-165.5"/>
</g>
<!-- ContactComponent -->
<g id="node3" class="node">
<title>ContactComponent</title>
<polygon fill="#ffffb3" stroke="black" points="1706.38,-122 1581.62,-122 1581.62,-86 1706.38,-86 1706.38,-122"/>
<text text-anchor="middle" x="1644" y="-99.8" font-family="Times,serif" font-size="14.00">ContactComponent</text>
</g>
<!-- ContactComponent&#45;&gt;AppModule -->
<g id="edge3" class="edge">
<title>ContactComponent&#45;&gt;AppModule</title>
<path fill="none" stroke="black" d="M1644,-122.3C1644,-140.27 1644,-165 1644,-165 1644,-165 1208.94,-165 1208.94,-165"/>
<polygon fill="black" stroke="black" points="1208.94,-161.5 1198.94,-165 1208.94,-168.5 1208.94,-161.5"/>
</g>
<!-- DataProtectionComponent -->
<g id="node4" class="node">
<title>DataProtectionComponent</title>
<polygon fill="#ffffb3" stroke="black" points="1563.8,-122 1398.2,-122 1398.2,-86 1563.8,-86 1563.8,-122"/>
<text text-anchor="middle" x="1481" y="-99.8" font-family="Times,serif" font-size="14.00">DataProtectionComponent</text>
</g>
<!-- DataProtectionComponent&#45;&gt;AppModule -->
<g id="edge4" class="edge">
<title>DataProtectionComponent&#45;&gt;AppModule</title>
<path fill="none" stroke="black" d="M1481,-122.03C1481,-138.4 1481,-160 1481,-160 1481,-160 1208.69,-160 1208.69,-160"/>
<polygon fill="black" stroke="black" points="1208.69,-156.5 1198.69,-160 1208.69,-163.5 1208.69,-156.5"/>
</g>
<!-- FooterComponent -->
<g id="node5" class="node">
<title>FooterComponent</title>
<polygon fill="#ffffb3" stroke="black" points="1379.88,-122 1262.12,-122 1262.12,-86 1379.88,-86 1379.88,-122"/>
<text text-anchor="middle" x="1321" y="-99.8" font-family="Times,serif" font-size="14.00">FooterComponent</text>
</g>
<!-- FooterComponent&#45;&gt;AppModule -->
<g id="edge5" class="edge">
<title>FooterComponent&#45;&gt;AppModule</title>
<path fill="none" stroke="black" d="M1321,-122.19C1321,-137.18 1321,-156 1321,-156 1321,-156 1208.81,-156 1208.81,-156"/>
<polygon fill="black" stroke="black" points="1208.81,-152.5 1198.81,-156 1208.81,-159.5 1208.81,-152.5"/>
</g>
<!-- FullBodyPictureComponent -->
<g id="node6" class="node">
<title>FullBodyPictureComponent</title>
<polygon fill="#ffffb3" stroke="black" points="1243.89,-122 1070.11,-122 1070.11,-86 1243.89,-86 1243.89,-122"/>
<text text-anchor="middle" x="1157" y="-99.8" font-family="Times,serif" font-size="14.00">FullBodyPictureComponent</text>
</g>
<!-- FullBodyPictureComponent&#45;&gt;AppModule -->
<g id="edge6" class="edge">
<title>FullBodyPictureComponent&#45;&gt;AppModule</title>
<path fill="none" stroke="black" d="M1157,-122.11C1157,-122.11 1157,-140.99 1157,-140.99"/>
<polygon fill="black" stroke="black" points="1153.5,-140.99 1157,-150.99 1160.5,-140.99 1153.5,-140.99"/>
</g>
<!-- HeaderComponent -->
<g id="node7" class="node">
<title>HeaderComponent</title>
<polygon fill="#ffffb3" stroke="black" points="1051.74,-122 930.26,-122 930.26,-86 1051.74,-86 1051.74,-122"/>
<text text-anchor="middle" x="991" y="-99.8" font-family="Times,serif" font-size="14.00">HeaderComponent</text>
</g>
<!-- HeaderComponent&#45;&gt;AppModule -->
<g id="edge7" class="edge">
<title>HeaderComponent&#45;&gt;AppModule</title>
<path fill="none" stroke="black" d="M991,-122.19C991,-137.18 991,-156 991,-156 991,-156 1105.11,-156 1105.11,-156"/>
<polygon fill="black" stroke="black" points="1105.11,-159.5 1115.11,-156 1105.11,-152.5 1105.11,-159.5"/>
</g>
<!-- LegalNoticeComponent -->
<g id="node8" class="node">
<title>LegalNoticeComponent</title>
<polygon fill="#ffffb3" stroke="black" points="912.02,-122 761.98,-122 761.98,-86 912.02,-86 912.02,-122"/>
<text text-anchor="middle" x="837" y="-99.8" font-family="Times,serif" font-size="14.00">LegalNoticeComponent</text>
</g>
<!-- LegalNoticeComponent&#45;&gt;AppModule -->
<g id="edge8" class="edge">
<title>LegalNoticeComponent&#45;&gt;AppModule</title>
<path fill="none" stroke="black" d="M837,-122.03C837,-138.4 837,-160 837,-160 837,-160 1105.17,-160 1105.17,-160"/>
<polygon fill="black" stroke="black" points="1105.17,-163.5 1115.17,-160 1105.17,-156.5 1105.17,-163.5"/>
</g>
<!-- NavbarComponent -->
<g id="node9" class="node">
<title>NavbarComponent</title>
<polygon fill="#ffffb3" stroke="black" points="743.03,-122 620.97,-122 620.97,-86 743.03,-86 743.03,-122"/>
<text text-anchor="middle" x="682" y="-99.8" font-family="Times,serif" font-size="14.00">NavbarComponent</text>
</g>
<!-- NavbarComponent&#45;&gt;AppModule -->
<g id="edge9" class="edge">
<title>NavbarComponent&#45;&gt;AppModule</title>
<path fill="none" stroke="black" d="M682,-122.3C682,-140.27 682,-165 682,-165 682,-165 1105.26,-165 1105.26,-165"/>
<polygon fill="black" stroke="black" points="1105.26,-168.5 1115.26,-165 1105.26,-161.5 1105.26,-168.5"/>
</g>
<!-- ProjectsComponent -->
<g id="node10" class="node">
<title>ProjectsComponent</title>
<polygon fill="#ffffb3" stroke="black" points="603.43,-122 476.57,-122 476.57,-86 603.43,-86 603.43,-122"/>
<text text-anchor="middle" x="540" y="-99.8" font-family="Times,serif" font-size="14.00">ProjectsComponent</text>
</g>
<!-- ProjectsComponent&#45;&gt;AppModule -->
<g id="edge10" class="edge">
<title>ProjectsComponent&#45;&gt;AppModule</title>
<path fill="none" stroke="black" d="M540,-122.11C540,-141.34 540,-169 540,-169 540,-169 1105.08,-169 1105.08,-169"/>
<polygon fill="black" stroke="black" points="1105.08,-172.5 1115.08,-169 1105.08,-165.5 1105.08,-172.5"/>
</g>
<!-- SkillsComponent -->
<g id="node11" class="node">
<title>SkillsComponent</title>
<polygon fill="#ffffb3" stroke="black" points="458.73,-122 345.27,-122 345.27,-86 458.73,-86 458.73,-122"/>
<text text-anchor="middle" x="402" y="-99.8" font-family="Times,serif" font-size="14.00">SkillsComponent</text>
</g>
<!-- SkillsComponent&#45;&gt;AppModule -->
<g id="edge11" class="edge">
<title>SkillsComponent&#45;&gt;AppModule</title>
<path fill="none" stroke="black" d="M402,-122.03C402,-142.77 402,-174 402,-174 402,-174 1105.33,-174 1105.33,-174"/>
<polygon fill="black" stroke="black" points="1105.33,-177.5 1115.33,-174 1105.33,-170.5 1105.33,-177.5"/>
</g>
<!-- SlideshowComponent -->
<g id="node12" class="node">
<title>SlideshowComponent</title>
<polygon fill="#ffffb3" stroke="black" points="327.66,-122 188.34,-122 188.34,-86 327.66,-86 327.66,-122"/>
<text text-anchor="middle" x="258" y="-99.8" font-family="Times,serif" font-size="14.00">SlideshowComponent</text>
</g>
<!-- SlideshowComponent&#45;&gt;AppModule -->
<g id="edge12" class="edge">
<title>SlideshowComponent&#45;&gt;AppModule</title>
<path fill="none" stroke="black" d="M258,-122.29C258,-144.21 258,-178 258,-178 258,-178 1105.14,-178 1105.14,-178"/>
<polygon fill="black" stroke="black" points="1105.14,-181.5 1115.14,-178 1105.14,-174.5 1105.14,-181.5"/>
</g>
<!-- StartButtonComponent -->
<g id="node13" class="node">
<title>StartButtonComponent</title>
<polygon fill="#ffffb3" stroke="black" points="169.89,-122 24.11,-122 24.11,-86 169.89,-86 169.89,-122"/>
<text text-anchor="middle" x="97" y="-99.8" font-family="Times,serif" font-size="14.00">StartButtonComponent</text>
</g>
<!-- StartButtonComponent&#45;&gt;AppModule -->
<g id="edge13" class="edge">
<title>StartButtonComponent&#45;&gt;AppModule</title>
<path fill="none" stroke="black" d="M97,-122.32C97,-145.66 97,-183 97,-183 97,-183 1105.12,-183 1105.12,-183"/>
<polygon fill="black" stroke="black" points="1105.12,-186.5 1115.12,-183 1105.12,-179.5 1105.12,-186.5"/>
</g>
<!-- AppComponent  -->
<g id="node16" class="node">
<title>AppComponent </title>
<polygon fill="#80b1d3" stroke="black" points="1211.44,-252 1102.56,-252 1102.56,-216 1211.44,-216 1211.44,-252"/>
<text text-anchor="middle" x="1157" y="-229.8" font-family="Times,serif" font-size="14.00">AppComponent </text>
</g>
<!-- AppModule&#45;&gt;AppComponent  -->
<g id="edge15" class="edge">
<title>AppModule&#45;&gt;AppComponent </title>
<path fill="none" stroke="black" stroke-dasharray="1,5" d="M1157,-187.11C1157,-187.11 1157,-205.99 1157,-205.99"/>
<polygon fill="black" stroke="black" points="1153.5,-205.99 1157,-215.99 1160.5,-205.99 1153.5,-205.99"/>
</g>
<!-- AppRoutingModule -->
<g id="node15" class="node">
<title>AppRoutingModule</title>
<polygon fill="#8dd3c7" stroke="black" points="2240.27,-122 2237.27,-126 2216.27,-126 2213.27,-122 2111.73,-122 2111.73,-86 2240.27,-86 2240.27,-122"/>
<text text-anchor="middle" x="2176" y="-99.8" font-family="Times,serif" font-size="14.00">AppRoutingModule</text>
</g>
<!-- AppRoutingModule&#45;&gt;AppModule -->
<g id="edge14" class="edge">
<title>AppRoutingModule&#45;&gt;AppModule</title>
<path fill="none" stroke="black" d="M2176,-122.32C2176,-145.66 2176,-183 2176,-183 2176,-183 1208.85,-183 1208.85,-183"/>
<polygon fill="black" stroke="black" points="1208.85,-179.5 1198.85,-183 1208.85,-186.5 1208.85,-179.5"/>
</g>
<!-- Globals -->
<g id="node17" class="node">
<title>Globals</title>
<ellipse fill="#fdb462" stroke="black" cx="2047" cy="-104" rx="41.15" ry="18"/>
<text text-anchor="middle" x="2047" y="-99.8" font-family="Times,serif" font-size="14.00">Globals</text>
</g>
<!-- Globals&#45;&gt;AppModule -->
<g id="edge16" class="edge">
<title>Globals&#45;&gt;AppModule</title>
<path fill="none" stroke="black" d="M2047,-122.29C2047,-144.21 2047,-178 2047,-178 2047,-178 1208.73,-178 1208.73,-178"/>
<polygon fill="black" stroke="black" points="1208.73,-174.5 1198.73,-178 1208.73,-181.5 1208.73,-174.5"/>
</g>
</g>
</svg>
